<mxfile host="app.diagrams.net" modified="2023-09-23T08:53:07.974Z" agent="Mozilla/5.0 (Windows NT 10.0; Win64; x64) AppleWebKit/537.36 (KHTML, like Gecko) Chrome/114.0.0.0 YaBrowser/23.7.5.739 Yowser/2.5 Safari/537.36" etag="4-6iDoIp7y5UGJ8aoX_V" version="21.7.5" type="github">
  <diagram name="Страница — 1" id="4v0iLh6YRhnLdDw0bhZ6">
    <mxGraphModel dx="1183" dy="548" grid="1" gridSize="10" guides="1" tooltips="1" connect="1" arrows="1" fold="1" page="1" pageScale="1" pageWidth="827" pageHeight="1169" math="0" shadow="0">
      <root>
        <mxCell id="0" />
        <mxCell id="1" parent="0" />
        <mxCell id="le7d9epTRdX4ngJYgFji-11" style="edgeStyle=orthogonalEdgeStyle;rounded=0;orthogonalLoop=1;jettySize=auto;html=1;" edge="1" parent="1" source="le7d9epTRdX4ngJYgFji-1" target="le7d9epTRdX4ngJYgFji-4">
          <mxGeometry relative="1" as="geometry" />
        </mxCell>
        <mxCell id="le7d9epTRdX4ngJYgFji-13" style="edgeStyle=orthogonalEdgeStyle;rounded=0;orthogonalLoop=1;jettySize=auto;html=1;entryX=0;entryY=0.5;entryDx=0;entryDy=0;" edge="1" parent="1" source="le7d9epTRdX4ngJYgFji-1" target="le7d9epTRdX4ngJYgFji-12">
          <mxGeometry relative="1" as="geometry" />
        </mxCell>
        <mxCell id="le7d9epTRdX4ngJYgFji-22" style="edgeStyle=orthogonalEdgeStyle;rounded=0;orthogonalLoop=1;jettySize=auto;html=1;exitX=0;exitY=0.3333333333333333;exitDx=0;exitDy=0;exitPerimeter=0;entryX=1;entryY=0.5;entryDx=0;entryDy=0;" edge="1" parent="1" source="le7d9epTRdX4ngJYgFji-1" target="le7d9epTRdX4ngJYgFji-14">
          <mxGeometry relative="1" as="geometry" />
        </mxCell>
        <mxCell id="le7d9epTRdX4ngJYgFji-23" style="edgeStyle=orthogonalEdgeStyle;rounded=0;orthogonalLoop=1;jettySize=auto;html=1;exitX=1;exitY=0.3333333333333333;exitDx=0;exitDy=0;exitPerimeter=0;entryX=0;entryY=0.5;entryDx=0;entryDy=0;" edge="1" parent="1" source="le7d9epTRdX4ngJYgFji-1" target="le7d9epTRdX4ngJYgFji-16">
          <mxGeometry relative="1" as="geometry" />
        </mxCell>
        <mxCell id="le7d9epTRdX4ngJYgFji-32" style="edgeStyle=orthogonalEdgeStyle;rounded=0;orthogonalLoop=1;jettySize=auto;html=1;" edge="1" parent="1" source="le7d9epTRdX4ngJYgFji-1" target="le7d9epTRdX4ngJYgFji-31">
          <mxGeometry relative="1" as="geometry" />
        </mxCell>
        <mxCell id="le7d9epTRdX4ngJYgFji-1" value="Заказчик" style="shape=umlActor;verticalLabelPosition=bottom;verticalAlign=top;html=1;outlineConnect=0;" vertex="1" parent="1">
          <mxGeometry x="394" y="870" width="30" height="60" as="geometry" />
        </mxCell>
        <mxCell id="le7d9epTRdX4ngJYgFji-4" value="работа с моими заказами" style="ellipse;whiteSpace=wrap;html=1;" vertex="1" parent="1">
          <mxGeometry x="190" y="865" width="140" height="70" as="geometry" />
        </mxCell>
        <mxCell id="le7d9epTRdX4ngJYgFji-12" value="отслеживание статуса заказа" style="ellipse;whiteSpace=wrap;html=1;" vertex="1" parent="1">
          <mxGeometry x="480" y="865" width="140" height="70" as="geometry" />
        </mxCell>
        <mxCell id="le7d9epTRdX4ngJYgFji-14" value="создать отзыв" style="ellipse;whiteSpace=wrap;html=1;" vertex="1" parent="1">
          <mxGeometry x="190" y="780" width="140" height="70" as="geometry" />
        </mxCell>
        <mxCell id="le7d9epTRdX4ngJYgFji-16" value="открыть приложение" style="ellipse;whiteSpace=wrap;html=1;" vertex="1" parent="1">
          <mxGeometry x="480" y="780" width="140" height="70" as="geometry" />
        </mxCell>
        <mxCell id="le7d9epTRdX4ngJYgFji-24" value="выбор типа заказа" style="ellipse;whiteSpace=wrap;html=1;" vertex="1" parent="1">
          <mxGeometry y="800" width="140" height="70" as="geometry" />
        </mxCell>
        <mxCell id="le7d9epTRdX4ngJYgFji-25" value="&amp;lt;&amp;lt;include&amp;gt;&amp;gt;" style="html=1;verticalAlign=bottom;endArrow=open;dashed=1;endSize=8;curved=0;rounded=0;exitX=0;exitY=0.5;exitDx=0;exitDy=0;entryX=1;entryY=1;entryDx=0;entryDy=0;" edge="1" parent="1" source="le7d9epTRdX4ngJYgFji-4" target="le7d9epTRdX4ngJYgFji-24">
          <mxGeometry relative="1" as="geometry">
            <mxPoint x="560" y="880" as="sourcePoint" />
            <mxPoint x="480" y="880" as="targetPoint" />
          </mxGeometry>
        </mxCell>
        <mxCell id="le7d9epTRdX4ngJYgFji-26" value="заказать такси" style="ellipse;whiteSpace=wrap;html=1;" vertex="1" parent="1">
          <mxGeometry y="910" width="140" height="70" as="geometry" />
        </mxCell>
        <mxCell id="le7d9epTRdX4ngJYgFji-27" value="&amp;lt;&amp;lt;include&amp;gt;&amp;gt;" style="html=1;verticalAlign=bottom;endArrow=open;dashed=1;endSize=8;curved=0;rounded=0;exitX=0;exitY=0.5;exitDx=0;exitDy=0;entryX=1;entryY=0;entryDx=0;entryDy=0;" edge="1" parent="1" source="le7d9epTRdX4ngJYgFji-4" target="le7d9epTRdX4ngJYgFji-26">
          <mxGeometry relative="1" as="geometry">
            <mxPoint x="200" y="910" as="sourcePoint" />
            <mxPoint x="130" y="870" as="targetPoint" />
          </mxGeometry>
        </mxCell>
        <mxCell id="le7d9epTRdX4ngJYgFji-28" value="регистрация в приложении" style="ellipse;whiteSpace=wrap;html=1;" vertex="1" parent="1">
          <mxGeometry x="660" y="900" width="140" height="70" as="geometry" />
        </mxCell>
        <mxCell id="le7d9epTRdX4ngJYgFji-30" value="&amp;lt;&amp;lt;include&amp;gt;&amp;gt;" style="html=1;verticalAlign=bottom;endArrow=open;dashed=1;endSize=8;curved=0;rounded=0;exitX=1;exitY=0.5;exitDx=0;exitDy=0;" edge="1" parent="1" source="le7d9epTRdX4ngJYgFji-16" target="le7d9epTRdX4ngJYgFji-28">
          <mxGeometry relative="1" as="geometry">
            <mxPoint x="210" y="920" as="sourcePoint" />
            <mxPoint x="140" y="880" as="targetPoint" />
          </mxGeometry>
        </mxCell>
        <mxCell id="le7d9epTRdX4ngJYgFji-31" value="Заказчик" style="shape=umlActor;verticalLabelPosition=bottom;verticalAlign=top;html=1;outlineConnect=0;" vertex="1" parent="1">
          <mxGeometry x="394" y="650" width="30" height="60" as="geometry" />
        </mxCell>
      </root>
    </mxGraphModel>
  </diagram>
</mxfile>
